<?xml version="1.0" encoding="UTF-8" standalone="no"?>
<!-- Created with Inkscape (http://www.inkscape.org/) -->

<svg
   xmlns:dc="http://purl.org/dc/elements/1.1/"
   xmlns:cc="http://creativecommons.org/ns#"
   xmlns:rdf="http://www.w3.org/1999/02/22-rdf-syntax-ns#"
   xmlns:svg="http://www.w3.org/2000/svg"
   xmlns="http://www.w3.org/2000/svg"
   xmlns:sodipodi="http://sodipodi.sourceforge.net/DTD/sodipodi-0.dtd"
   xmlns:inkscape="http://www.inkscape.org/namespaces/inkscape"
   version="1.1"
   id="svg2"
   width="178.62012"
   height="69.898483"
   viewBox="0 0 178.62012 69.898483"
   sodipodi:docname="logo.svg"
   inkscape:version="0.92.3 (2405546, 2018-03-11)">
  <metadata
     id="metadata8">
    <rdf:RDF>
      <cc:Work
         rdf:about="">
        <dc:format>image/svg+xml</dc:format>
        <dc:type
           rdf:resource="http://purl.org/dc/dcmitype/StillImage" />
        <dc:title></dc:title>
      </cc:Work>
    </rdf:RDF>
  </metadata>
  <defs
     id="defs6" />
  <sodipodi:namedview
     pagecolor="#ffffff"
     bordercolor="#666666"
     borderopacity="1"
     objecttolerance="10"
     gridtolerance="10"
     guidetolerance="10"
     inkscape:pageopacity="0"
     inkscape:pageshadow="2"
     inkscape:window-width="1920"
     inkscape:window-height="1017"
     id="namedview4"
     showgrid="false"
     inkscape:pagecheckerboard="true"
     fit-margin-top="0"
     fit-margin-left="0"
     fit-margin-right="0"
     fit-margin-bottom="0"
     inkscape:zoom="4.72"
     inkscape:cx="124.66255"
     inkscape:cy="47.331329"
     inkscape:window-x="-8"
     inkscape:window-y="-8"
     inkscape:window-maximized="1"
     inkscape:current-layer="svg2" />
  <path
     style="fill:#000000"
     d="m 22.78931,68.636697 c -0.94087,-0.71483 -2.18114,-2.53709 -2.75615,-4.04948 -1.18174,-3.1082 -3.05614,-3.01388 -4.52029,0.22747 -0.54292,1.20192 -1.50517,2.18531 -2.13834,2.18531 -0.82721,0 -0.72235,-1.70249 0.37261,-6.04926 l 1.52381,-6.04926 4.61452,0.29926 c 3.86897,0.25091 4.66472,0.65186 4.92521,2.4816 0.19769,1.38861 -0.42889,2.57815 -1.72277,3.27061 -2.02485,1.08367 -2.0252,1.10183 -0.0821,4.29708 1.07327,1.76484 2.74851,3.52394 3.72277,3.9091 1.58402,0.62623 1.55984,0.70437 -0.22862,0.73878 -1.1,0.0212 -2.76981,-0.54638 -3.71069,-1.26121 z M 21.5,58.499997 c 0,-2.97814 -3.9036,-2.6806 -4.33004,0.33004 -0.27463,1.93881 0.0612,2.27462 2,2 1.55336,-0.22003 2.33004,-0.99671 2.33004,-2.33004 z m -18.38339,2.59222 c 2.42278,-8.472 2.38071,-9.09222 -0.61661,-9.09222 -1.375,0 -2.5,-0.45 -2.5,-1 0,-0.58401 3.2239,-0.98372 7.75,-0.96086 7.41565,0.0374 7.61513,0.0978 4.62381,1.39967 -2.64118,1.14945 -3.31409,2.1906 -4.33732,6.71086 -1.9212,8.48722 -1.9796,8.6063 -4.45223,9.07897 l -2.35103,0.44943 z M 36,65.499997 c -1.25353,-3.29702 -6.1026,-3.48416 -8.20572,-0.31669 -0.79732,1.20082 -1.71992,1.74604 -2.05022,1.21159 -0.33031,-0.53445 0.97132,-3.31694 2.8925,-6.18331 2.88544,-4.30505 4.00362,-5.21159 6.42824,-5.21159 H 38 v 6.5 c 0,6.97607 -0.49336,7.96278 -2,4 z m -1.55708,-4.40765 c 0.30853,-0.4992 0.19432,-1.89877 -0.2538,-3.11014 l -0.81476,-2.20251 -1.68718,2.57497 C 30.75923,59.770897 30,61.170467 30,61.464817 c 0,0.91104 3.8491,0.58835 4.44292,-0.37247 z M 102,65.499997 c -1.21625,-3.19897 -5.908933,-3.47672 -7.792163,-0.4612 -0.70029,1.12134 -1.69929,1.7755 -2.22001,1.45368 -0.52071,-0.32182 0.68272,-3.03928 2.67429,-6.0388 2.98014,-4.48842 4.12696,-5.45368 6.479463,-5.45368 2.85139,0 2.85842,0.016 2.85842,6.5 0,6.97607 -0.49335,7.96278 -2,4 z m -1.16266,-7 0.33734,-3 -2.587343,2.42431 c -3.1832,2.98263 -3.29866,4.31581 -0.33734,3.89524 1.66605,-0.23662 2.337553,-1.09814 2.587343,-3.31955 z m 46.36266,8.3 c -0.66,-0.66 -1.2,-1.77643 -1.2,-2.48095 0,-1.6382 -4.25886,-2.72188 -7.5,-1.90841 -1.375,0.34511 -2.5,1.24575 -2.5,2.00142 0,0.75568 -0.7118,1.64711 -1.58179,1.98095 -2.38287,0.91439 -2.69023,0.75824 -2.00783,-1.02007 0.3716,-0.96836 -0.0911,-2.17 -1.14301,-2.96819 -1.62259,-1.23128 -1.55369,-1.34375 0.84105,-1.37295 2.03689,-0.0248 3.40856,-1.2369 6.26021,-5.5318 3.22249,-4.85342 4.04737,-5.5 7.01658,-5.5 2.96856,0 3.43839,0.36799 3.98979,3.125 0.89464,4.47322 0.77227,14.875 -0.175,14.875 -0.44,0 -1.34,-0.54 -2,-1.2 z m -1.9605,-8.20397 c 0.40672,-0.60282 0.51922,-1.69533 0.25,-2.42782 -0.26923,-0.73248 -0.4895,-2.02508 -0.4895,-2.87244 0,-1.28492 -0.25993,-1.32494 -1.56594,-0.24105 -1.47491,1.22407 -4.43406,6.17238 -4.43406,7.41467 0,0.94139 5.44298,-0.69282 6.2395,-1.87336 z m -102.11724,6.15397 c -1.72605,-4.68901 -2.06205,-9.75 -0.64729,-9.75 0.7948,0 1.62693,1.64368 2.02503,4 0.37169,2.2 1.08059,4 1.57535,4 0.49476,0 2.09075,-1.9125 3.54665,-4.25 3.24004,-5.20198 3.249,-5.21233 3.92742,-4.53391 0.49588,0.49587 -1.73795,4.37735 -6.06237,10.53391 -0.86923,1.2375 -2.02055,2.25 -2.55849,2.25 -0.53793,0 -1.35077,-1.0125 -1.8063,-2.25 z m 10.46474,0 c 1.42116,-4.4302 2.17033,-8.65933 1.62973,-9.19994 -0.30254,-0.30253 2.11243,-0.48264 5.3666,-0.40023 3.34816,0.0848 4.61433,0.34026 2.91667,0.58849 -5.7817,0.84538 -7.50972,4.19777 -2.25,4.36503 l 3.25,0.10335 -3.75,0.99599 c -2.07441,0.55096 -3.75,1.62184 -3.75,2.39665 0,0.93143 1.25627,1.43919 3.75,1.51566 l 3.75,0.115 -4,0.82737 c -6.81692,1.41003 -7.72936,1.23747 -6.913,-1.30737 z m 14.30863,-3.75658 c 2.14621,-8.23776 4.2199,-7.53499 2.97015,1.00658 -0.31909,2.18086 0.0491,2.54 2.88422,2.81336 2.54917,0.24578 3.25,-0.0644 3.25,-1.43856 0,-1.50925 0.29118,-1.43938 2.10212,0.50444 1.17319,1.25927 2.75599,2.00545 3.58179,1.68856 0.81381,-0.31229 1.89286,-0.5678 2.39787,-0.5678 2.239,0 0.62709,-3.20552 -2.08781,-4.15195 -3.22369,-1.12378 -4.6365,-4.24826 -3.51654,-7.77694 0.9651,-3.04078 4.08623,-4.32063 8.65444,-3.54883 3.583817,0.60548 3.951437,0.93811 3.675137,3.32525 -0.23769,2.05355 -0.85268,2.65247 -2.72368,2.65247 -1.329167,0 -2.639847,-0.675 -2.912617,-1.5 -0.40597,-1.22784 -0.22295,-1.27477 1.00868,-0.25868 1.63703,1.35056 2.820607,0.73316 2.820607,-1.47135 0,-0.97336 -0.98505,-1.30171 -3.249997,-1.08333 -4.8186,0.4646 -4.97459,3.89328 -0.30255,6.64986 4.075517,2.40461 4.868727,6.38874 1.61829,8.12832 -2.32882,1.24634 -8.73844,1.37378 -9.4711,0.18831 -0.28787,-0.46578 -2.67693,-0.4926 -5.30902,-0.0596 -2.63209,0.43299 -5.27371,0.81408 -5.87026,0.84687 -0.72247,0.0397 -0.56211,-1.94604 0.48027,-5.94697 z m 39.64873,1.88085 c 0.8006,-2.26915 1.45564,-4.96915 1.45564,-6 0,-1.60736 0.74765,-1.85969 5.25,-1.77191 4.86115,0.0948 4.99971,0.16145 1.87074,0.90014 -4.62301,1.0914 -5.91921,3.32699 -2.34316,4.04129 l 2.72242,0.54379 -2.78537,0.73414 c -1.63637,0.4313 -3.17308,1.75389 -3.72525,3.20621 -0.51693,1.35964 -1.60605,2.47207 -2.42027,2.47207 -1.30319,0 -1.30615,-0.49385 -0.0247,-4.12573 z m 12.00667,0.65785 c 0.79693,-1.90734 1.44897,-4.60734 1.44897,-6 0,-2.4354 0.21962,-2.5257 5.75,-2.36402 4.26023,0.12455 4.77918,0.26969 2.00297,0.56019 -2.40496,0.25165 -4.11886,1.08686 -4.78518,2.3319 -0.92643,1.73104 -0.68459,1.94952 2.24703,2.03 l 3.28518,0.0902 -3.25,0.9384 c -1.7875,0.51612 -3.25,1.60054 -3.25,2.40981 0,0.96912 1.10945,1.5118 3.25,1.58972 l 3.25,0.11832 -3,0.76337 c -1.65,0.41985 -4.21454,0.81661 -5.69897,0.88169 -2.69791,0.11826 -2.69841,0.11695 -1.25,-3.34957 z m 33.88918,1.76309 c 0.3598,-0.93763 0.91912,-3.63763 1.24291,-6 0.58838,-4.29266 0.59124,-4.29521 4.83036,-4.29521 7.80498,0 8.07649,5.83201 0.34352,7.3786 -1.88775,0.37755 -3.23975,1.36904 -3.56552,2.61478 -0.28861,1.10364 -1.1954,2.00662 -2.0151,2.00662 -0.99349,0 -1.27226,-0.56836 -0.83617,-1.70479 z M 162.5,57.891717 c 0,-2.43148 -3.446,-2.20838 -4.38735,0.28404 -0.4828,1.27833 -0.66278,2.68815 -0.39994,3.13294 0.68057,1.1517 4.78729,-1.77952 4.78729,-3.41698 z m 5.02666,3.67032 c 0.69525,-2.99087 1.01117,-5.69087 0.70205,-6 -0.30912,-0.30912 1.48286,-0.56204 3.98218,-0.56204 5.70853,0 7.93549,2.07579 5.32343,4.96208 -0.95794,1.05851 -3.09966,2.22282 -4.75938,2.58735 -1.75681,0.38586 -3.22461,1.45411 -3.51294,2.55668 -0.27239,1.04164 -1.0587,1.89389 -1.74735,1.89389 -1.00131,0 -0.9989,-1.08915 0.012,-5.43796 z M 175.5,57.891717 c 0,-2.43148 -3.446,-2.20838 -4.38735,0.28404 -0.4828,1.27833 -0.66278,2.68815 -0.39994,3.13294 0.68057,1.1517 4.78729,-1.77952 4.78729,-3.41698 z M 63.59195,39.5 C 61.99391,37.06108 62.01554,37 64.47694,37 c 2.66693,0 3.03488,-0.64391 1.63259,-2.857012 -1.07489,-1.696409 -5.44536,-0.545546 -4.47735,1.179012 0.43873,0.78161 0.32922,0.84151 -0.32544,0.178 -1.63798,-1.66011 -5.7324,-9.097041 -4.26678,-7.75 C 58.62522,29.206996 62,29.425694 62,28.071429 c 0,-0.510715 -0.64746,-1.576031 -1.4388,-2.367371 -1.25173,-1.251731 -1.097,-1.594535 1.19014,-2.636622 1.44591,-0.658803 5.44278,-3.436871 8.88193,-6.173485 l 6.253,-4.975662 3.35235,5.290855 c 1.84379,2.909971 4.38281,6.98116 5.64227,9.047087 1.25946,2.065926 2.65884,3.528229 3.10974,3.249561 0.450887,-0.278668 2.930107,-4.106275 5.509367,-8.505792 2.57926,-4.399517 5.04592,-8.219365 5.48147,-8.488551 0.435563,-0.269185 1.356553,0.190919 2.046673,1.022454 1.04487,1.258991 0.98159,1.407063 -0.37827,0.885235 -2.118893,-0.813097 -3.488613,2.436161 -1.54559,3.666474 2.076,1.314513 2.69557,1.12038 3.3881,-1.061618 0.57947,-1.82573 1.00345,-1.67857 5.57499,1.935023 2.7213,2.151066 5.84578,4.196031 6.94329,4.544367 1.77557,0.563542 1.82983,0.798983 0.49241,2.136406 C 115.67638,26.466477 115,27.560714 115,28.071429 c 0,1.354265 3.37478,1.135567 4.96004,-0.321429 1.46561,-1.347041 -2.6288,6.08989 -4.26678,7.75 -0.65518,0.66403 -0.77132,0.61524 -0.34571,-0.14522 0.90319,-1.613731 -2.31596,-2.625889 -3.9743,-1.249588 -2.07156,1.719248 -1.66249,2.727068 1.24951,3.078388 l 2.62275,0.31642 -1.95404,2.40075 c -1.53514,1.8861 -2.52808,2.25668 -4.63183,1.72867 -2.55963,-0.64242 -2.60962,-0.77613 -1.13283,-3.02999 1.40628,-2.14626 1.39572,-2.41518 -0.11767,-2.99592 -2.39815,-0.920261 -4.76961,1.25722 -3.29903,3.02917 2.24138,2.70069 -0.11236,1.27903 -6.014393,-3.63268 -7.32525,-6.096137 -8.55485,-6.297458 -7.6346,-1.25 0.62136,3.40812 0.55332,3.57536 -0.74636,1.83443 -1.409057,-1.887427 -1.447147,-1.887427 -2.592967,0 C 86.15333,37.17969 86.06454,36.87295 86.59073,33.75 86.95116,31.610836 86.81562,30 86.27517,30 c -0.52107,0 -3.75095,2.25 -7.17752,5 -6.19124,4.9688 -8.3793,6.24921 -6.20777,3.63268 1.47059,-1.77195 -0.90087,-3.949431 -3.29902,-3.02917 -1.4972,0.57453 -1.51355,0.86554 -0.16434,2.92469 1.33651,2.03977 1.33155,2.35066 -0.0459,2.87924 -2.787,1.06947 -4.12755,0.62774 -5.78866,-1.90744 z M 80.88988,32.632679 C 82.60615,30.5647 79.606,28.25217 77.48767,30.010234 76.33736,30.964901 76.24698,31.592672 77.11011,32.632679 77.73424,33.384705 78.58469,34 79,34 c 0.41531,0 1.26576,-0.615295 1.88988,-1.367321 z m 19.000007,0 c 1.716273,-2.067979 -1.28388,-4.380509 -3.40222,-2.622445 -1.15031,0.954667 -1.24069,1.582438 -0.37756,2.622445 C 96.734237,33.384705 97.584687,34 97.999997,34 c 0.41531,0 1.26576,-0.615295 1.88989,-1.367321 z M 73.41821,32.393011 c 1.79408,-0.688452 2.10469,-2.951803 0.53798,-3.920084 -1.48558,-0.918142 -3.94306,1.397719 -3.28976,3.100186 0.62645,1.632518 0.63077,1.633805 2.75178,0.819898 z m 32.91536,-0.819898 c 0.6533,-1.702467 -1.80418,-4.018328 -3.28977,-3.100186 -1.43795,0.888705 -1.31185,3.252246 0.2062,3.864792 2.07023,0.835358 2.5116,0.725916 3.08357,-0.764606 z M 67.82035,30.716462 c 1.4384,-1.73317 -0.0719,-3.940911 -2.1503,-3.143343 -1.7007,0.652621 -2.20839,2.555205 -1.00339,3.760214 1.00011,1.000108 1.969,0.81059 3.15369,-0.616871 z m 44.97874,-0.923501 c 0.37896,-1.952885 -2.87292,-3.291537 -3.91194,-1.610369 -0.91112,1.47423 0.92608,4.046124 2.51294,3.517847 0.60495,-0.201395 1.2345,-1.05976 1.399,-1.907478 z M 81.72185,25.878145 c 1.10168,-1.101677 0.68342,-3.892892 -0.57884,-3.862832 -1.75487,0.04179 -3.14016,1.828538 -2.56989,3.314637 0.74957,1.953369 1.59617,2.100761 3.14873,0.548195 z M 98.426877,25.32995 c 0.57027,-1.486099 -0.81502,-3.272847 -2.56989,-3.314637 -1.26226,-0.03006 -1.68052,2.761155 -0.57885,3.862832 1.55257,1.552566 2.39916,1.405174 3.14874,-0.548195 z M 70,22.436572 c 0,-0.725196 -0.48921,-1.620886 -1.08713,-1.990423 -1.69049,-1.044778 -3.18674,1.115595 -2.42811,3.505837 0.54722,1.724152 0.96563,1.919114 2.09934,0.978219 C 69.36284,24.283903 70,23.161768 70,22.436572 Z m 5.82035,2.27989 c 1.4384,-1.73317 -0.0719,-3.940911 -2.1503,-3.143343 -1.7007,0.652621 -2.20839,2.555205 -1.00339,3.760214 1.00011,1.000108 1.969,0.81059 3.15369,-0.616871 z m 28.97874,-0.923501 c 0.37896,-1.952885 -2.87292,-3.291537 -3.91194,-1.610369 -0.911123,1.47423 0.92608,4.046124 2.51294,3.517847 0.60495,-0.201395 1.2345,-1.05976 1.399,-1.907478 z m 5.99578,-2.540126 C 110.223,20.563776 109.34609,20 108.84617,20 c -1.57975,0 -2.12116,2.963733 -0.8264,4.523825 1.09584,1.320404 1.39622,1.289537 2.52919,-0.2599 0.90245,-1.234171 0.97575,-2.131689 0.24591,-3.01109 z M 76.41821,18.393011 c 1.79408,-0.688452 2.10469,-2.951803 0.53798,-3.920084 -1.48558,-0.918142 -3.94306,1.397719 -3.28976,3.100186 0.62645,1.632518 0.63077,1.633805 2.75178,0.819898 z M 129,34 c 0,-1.288889 0.50641,-1.997863 1.25,-1.75 0.6875,0.229167 1.25,1.016667 1.25,1.75 0,0.733333 -0.5625,1.52083 -1.25,1.75 C 129.50641,35.99786 129,35.28889 129,34 Z M 84,18 C 81.89,15.890006 81.31055,11.544134 83,10.5 83.55,10.160081 84,8.52894 84,6.875242 84,2.659728 85.67709,0 88.33518,0 c 3.146647,0 4.664817,1.835866 4.664817,5.640983 0,1.782541 0.45,3.519098 1,3.859017 1.6975,1.04911 1.13343,7.06927 -0.82874,8.845012 C 90.690697,20.589885 86.42958,20.429586 84,18 Z m 5.999997,0.03139 c 0,-0.532739 0.75312,-0.679615 1.67361,-0.326391 1.2679,0.48654 1.51792,0.236518 1.03138,-1.031385 C 92.351767,15.753124 92.498647,15 93.031377,15 c 0.53274,0 0.96862,-0.45 0.96862,-1 0,-1.614726 -1.84703,-1.152968 -4,1 -2.152967,2.152968 -2.614727,4 -1,4 0.55,0 1,-0.435877 1,-0.968615 z M 86.42579,14.667217 C 86.07392,13.750248 85.2015,13 84.48709,13 c -1.02631,0 -1.05633,0.514151 -0.14301,2.44983 1.25362,2.65691 3.13077,1.951201 2.08171,-0.782613 z M 87,11.166667 C 87,9.864593 85.81122,8.998634 84.84421,9.596285 83.80999,10.235467 84.70176,12 86.05901,12 86.57656,12 87,11.625 87,11.166667 Z M 91.824997,10.475 c -0.17875,-0.53625 -0.6625,-0.8625 -1.075,-0.725 -0.4125,0.1375 -0.75,-0.2 -0.75,-0.75 0,-0.55 -0.45,-1 -1,-1 -1.439587,0 -1.234117,2.739687 0.25,3.333333 1.74974,0.699898 2.95994,0.296498 2.575,-0.858333 z M 90.819547,4.75 C 90.609807,3.273184 89.812727,2.5 88.5,2.5 87.18727,2.5 86.39019,3.273184 86.18045,4.75 85.91832,6.59568 86.33514,7 88.5,7 90.664857,7 91.081677,6.59568 90.819547,4.75 Z"
     id="path3715"
     inkscape:connector-curvature="0" />
</svg>
